HIERARCHY
ROOT hip
{
	OFFSET 0.000000 0.000000 0.000000 
	CHANNELS 6 Xposition Yposition Zposition Xrotation Zrotation Yrotation
	JOINT abdomen
	{
		OFFSET 0.000000 3.402643 0.000000 
		CHANNELS 3 Xrotation Zrotation Yrotation
		JOINT chest
		{
			OFFSET 0.000000 8.438565 -0.680529 
			CHANNELS 3 Xrotation Zrotation Yrotation
			JOINT neck
			{
				OFFSET 0.000000 10.207942 -0.272212 
				CHANNELS 3 Xrotation Zrotation Yrotation
				JOINT head
				{
					OFFSET 0.000000 3.130431 0.000000 
					CHANNELS 3 Xrotation Zrotation Yrotation
					End Site
					{
						OFFSET 0.000000 3.130435 0.000000 
					}
				}
			}
			JOINT lCollar
			{
				OFFSET 3.470700 6.669187 -0.816635 
				CHANNELS 3 Yrotation Zrotation Xrotation
				JOINT lShldr
				{
					OFFSET 3.198488 0.000000 0.000000 
					CHANNELS 3 Zrotation Yrotation Xrotation
					JOINT lForeArm
					{
						OFFSET 10.139888 0.000000 0.000000 
						CHANNELS 3 Yrotation Zrotation Xrotation
						JOINT lHand
						{
							OFFSET 8.370511 0.000000 0.000000 
							CHANNELS 3 Zrotation Yrotation Xrotation
							End Site
							{
								OFFSET 4.083176 0.000000 0.000000 
							}
						}
					}
				}
			}
			JOINT rCollar
			{
				OFFSET -3.470700 6.669187 -0.816635 
				CHANNELS 3 Yrotation Zrotation Xrotation
				JOINT rShldr
				{
					OFFSET -3.198488 0.000000 0.000000 
					CHANNELS 3 Zrotation Yrotation Xrotation
					JOINT rForeArm
					{
						OFFSET -10.139888 0.000000 0.000000 
						CHANNELS 3 Yrotation Zrotation Xrotation
						JOINT rHand
						{
							OFFSET -8.370511 0.000000 0.000000 
							CHANNELS 3 Zrotation Yrotation Xrotation
							End Site
							{
								OFFSET -4.083176 0.000000 0.000000 
							}
						}
					}
				}
			}
		}
	}
	JOINT lThigh
	{
		OFFSET 5.308129 -1.633274 1.361059 
		CHANNELS 3 Xrotation Zrotation Yrotation
		JOINT lShin
		{
			OFFSET -2.041588 -20.007561 0.000000 
			CHANNELS 3 Xrotation Zrotation Yrotation
			JOINT lFoot
			{
				OFFSET 0.000000 -19.190928 -1.224953 
				CHANNELS 3 Xrotation Yrotation Zrotation
				End Site
				{
					OFFSET 0.000000 -2.449906 4.627600 
				}
			}
		}
	}
	JOINT rThigh
	{
		OFFSET -5.308129 -1.633274 1.361059 
		CHANNELS 3 Xrotation Zrotation Yrotation
		JOINT rShin
		{
			OFFSET 2.041588 -20.007561 0.000000 
			CHANNELS 3 Xrotation Zrotation Yrotation
			JOINT rFoot
			{
				OFFSET 0.000000 -19.190928 -1.224953 
				CHANNELS 3 Xrotation Yrotation Zrotation
				End Site
				{
					OFFSET 0.000000 -2.449906 4.627600 
				}
			}
		}
	}
}
MOTION
Frames: 10
Frame Time: 0.011111
37.589275 51.800968 -20.682755 -3.678744 1.863322 -33.184582 4.287333 -5.357373 3.736621 -2.554446 0.358786 1.140806 -12.415603 -2.000652 -2.319600 28.974983 9.717065 -2.871526 1.452834 -1.250150 0.768655 -59.224133 -31.815954 2.930635 -77.977562 8.871358 19.765743 6.992188 16.005859 146.770279 -6.408587 0.914528 1.823621 71.792633 20.920565 65.946953 89.013481 -2.560810 27.048271 -7.001954 -15.996095 59.658199 -9.420303 3.670835 -4.828650 24.768003 -5.282674 -1.772679 -27.403528 10.350624 5.152082 -2.410140 -9.576241 12.667112 25.798286 5.278354 1.851916 -18.826441 -0.329869 0.078454 
37.547600 51.785866 -20.825590 -4.071925 2.236007 -33.956551 4.292569 -5.880924 4.039527 -2.574024 0.415928 1.239427 -12.880879 -0.893194 -2.240098 29.830193 8.384067 -2.753369 1.452834 -1.250150 0.768655 -59.135696 -31.816380 3.144726 -77.628059 8.959616 19.593170 6.992188 16.005859 146.789795 -6.408587 0.914528 1.823621 72.761475 22.065926 65.478233 88.797211 -2.842094 26.757349 -7.001954 -15.996095 59.726563 -8.978271 3.230773 -4.737840 24.403477 -5.303390 -1.742165 -27.844017 10.968099 5.527984 -2.556335 -10.093213 12.492337 25.538786 5.277388 1.831966 -18.827974 -0.027666 0.175687 
37.512577 51.760803 -21.026707 -4.161893 2.379414 -34.631927 4.248660 -6.004903 4.329707 -2.730263 0.369076 1.325381 -13.145149 0.069407 -2.192398 30.716656 7.335078 -2.661419 1.452834 -1.250150 0.768655 -58.938599 -31.729431 3.650866 -77.248650 9.054791 19.405668 6.992188 16.005859 146.418716 -6.408587 0.914528 1.823621 73.826035 23.232082 65.086769 88.541977 -3.145630 26.454269 -7.001954 -15.996095 59.677734 -8.927183 3.230161 -4.785891 24.177246 -5.283487 -1.719363 -28.197836 11.526101 5.859751 -2.791920 -10.134841 12.403609 25.298822 5.278143 1.812323 -18.670599 0.135944 0.243076 
37.485092 51.735439 -21.261341 -4.032876 2.013913 -35.397976 4.436259 -5.445508 4.772638 -2.925488 0.098698 1.437819 -13.286274 0.981855 -2.088083 31.275696 6.589797 -2.430073 1.452834 -1.250150 0.768655 -58.653519 -31.711256 4.332024 -76.782578 9.160916 19.169941 6.992188 16.005859 145.940186 -6.408587 0.914528 1.823621 74.986809 24.516863 64.668716 88.255341 -3.462752 26.139051 -7.001954 -15.996095 59.550781 -8.940391 3.846047 -5.095674 23.998114 -5.278719 -1.721235 -29.047838 11.793956 6.268222 -2.838535 -9.535133 12.413773 25.058664 5.278896 1.783846 -18.588564 0.374689 0.311402 
37.446140 51.726677 -21.461252 -4.215389 1.770232 -36.160774 4.722908 -5.243873 5.172652 -3.091431 -0.054517 1.553177 -13.195998 1.837972 -1.915268 31.620102 6.059404 -2.010653 1.452834 -1.250150 0.768655 -58.476971 -31.760920 4.779728 -76.203003 9.288914 18.892969 6.992188 16.005859 145.158936 -6.408587 0.914528 1.823621 76.084946 25.825848 64.253204 87.912529 -3.812353 25.809916 -7.001954 -15.996095 59.189457 -8.657199 4.197324 -4.733834 23.865620 -5.289276 -1.707906 -29.165426 12.148294 6.441947 -2.623229 -9.270436 12.529874 24.770786 5.268275 1.759791 -18.870527 0.727172 0.441496 
37.399334 51.747208 -21.658142 -4.235003 1.759459 -36.818699 4.640831 -5.148189 5.488778 -3.052405 -0.066254 1.640922 -13.215690 2.707000 -1.758748 31.925947 5.307113 -1.680156 1.452834 -1.250150 0.768655 -58.458912 -32.005154 4.965102 -75.566505 9.414623 18.570826 6.992188 16.005859 143.928482 -6.408587 0.914528 1.823621 77.063522 27.370203 64.086510 87.519577 -4.184489 25.466722 -7.001954 -15.996095 58.583981 -8.682628 4.488487 -4.433488 23.775343 -5.288872 -1.684908 -29.518900 12.096143 6.526509 -2.664373 -9.118218 12.695524 24.418653 5.278044 1.737956 -18.897768 0.994991 0.506498 
37.367325 51.759895 -21.897005 -3.949616 1.725578 -37.458965 4.453877 -4.786615 5.774419 -3.032893 -0.096843 1.708938 -13.504739 3.749451 -1.702577 32.577900 4.031903 -1.650490 1.452834 -1.250150 0.768655 -58.518833 -32.151356 5.121848 -75.033188 9.513120 18.307451 6.992188 16.005859 142.785904 -6.408587 0.914528 1.823621 77.861053 28.939798 64.198608 87.193565 -4.466435 25.193560 -7.001954 -15.996095 58.056641 -8.987137 4.948063 -4.896420 23.593767 -5.293665 -1.659606 -30.576958 12.036733 6.916412 -3.033035 -8.782310 12.615164 24.088116 5.278326 1.705093 -18.412086 1.386062 0.662921 
37.334408 51.737549 -22.101746 -3.921576 1.673502 -38.129402 4.371150 -4.527207 6.055205 -3.052392 -0.233783 1.785658 -13.843594 4.592034 -1.652706 33.672020 3.141935 -1.560945 1.452834 -1.250150 0.768655 -58.488773 -32.063606 5.463399 -74.519012 9.600811 18.056023 6.992188 16.005859 142.004639 -6.408587 0.914528 1.823621 78.646004 30.255215 64.377800 86.876686 -4.727440 24.949835 -7.001954 -15.996095 57.539059 -8.900216 5.153493 -5.377795 23.314091 -5.288334 -1.637211 -31.490971 12.303834 7.352013 -3.189484 -8.655986 12.446202 23.795433 5.288177 1.675782 -17.951181 2.010609 0.890738 
37.285183 51.725468 -22.257267 -4.237753 1.650342 -38.801888 4.460983 -4.518296 6.313875 -2.954751 -0.384127 1.851825 -13.916276 5.224562 -1.533888 34.414776 2.770796 -1.254640 1.452834 -1.250150 0.768655 -58.459034 -32.024681 5.756118 -73.857376 9.706800 17.739693 6.992188 16.005859 141.057388 -6.408587 0.914528 1.823621 79.548401 31.579807 64.514748 86.493523 -5.022731 24.660666 -7.001954 -15.996095 57.031254 -8.464259 5.125752 -5.566065 23.093342 -5.289127 -1.637900 -32.231789 12.466467 7.719139 -3.032232 -8.771160 12.399892 23.567083 5.277688 1.655106 -17.824505 2.559502 1.053348 
37.228416 51.741779 -22.469557 -4.349169 1.565186 -39.472744 4.516815 -4.476252 6.597816 -2.964555 -0.365329 1.940009 -13.609935 5.952365 -1.437563 34.400288 2.112013 -1.121938 1.452834 -1.250150 0.768655 -58.557621 -32.073044 5.932736 -73.149139 9.804418 17.400923 6.992188 16.005859 139.787857 -6.408587 0.914528 1.823621 80.369743 32.930996 64.763519 86.144821 -5.278484 24.412762 -7.001954 -15.996095 57.021484 -8.235898 5.338532 -5.377982 22.781857 -5.289406 -1.596115 -32.339199 13.225052 8.101502 -3.121367 -8.587940 12.694279 23.436600 5.278972 1.659317 -17.700226 2.792832 1.146562 
